<svg version="1.2" baseProfile="tiny-ps" xmlns="http://www.w3.org/2000/svg" viewBox="0 0 135 50" width="135" height="50">
	<title>logo-text-svg</title>
	<style>
		tspan { white-space:pre }
		.shp0 { fill: #e90e59 } 
		.shp1 { fill: #ffe5f5 } 
		.shp2 { fill: #fe718d } 
		.shp3 { fill: #111111 } 
	</style>
	<g id="logo">
		<path id="Layer-1" class="shp0" d="M5.76 34.01L15.63 41.54L31.77 43.49L36.03 37.88L5.76 34.01Z" />
		<path id="Layer-2" class="shp1" d="M38.25 23.31L31.87 8.35L24.89 7.45L36.68 35.63L38.25 23.31Z" />
		<path id="Layer-3" class="shp2" d="M1.42 25.82L4.14 32.32L22.62 8.02L11.17 12.82L1.42 25.82Z" />
	</g>
	<g id="text">
		<path id="Layer-4" fill-rule="evenodd" class="shp3" d="M49.69 16.81L45.05 16.81L44.11 18.99L43.2 18.99L46.87 10.45L47.89 10.45L51.57 18.99L50.63 18.99L49.69 16.81ZM49.35 15.99L47.36 11.38L45.39 15.99L49.35 15.99ZM56.71 19.08C55.54 19.08 54.45 18.62 53.7 17.87C53.32 17.5 53.02 17.05 52.79 16.5C52.57 15.95 52.46 15.37 52.46 14.75C52.46 14.12 52.57 13.52 52.81 12.97C53.04 12.42 53.35 11.95 53.73 11.58C54.51 10.82 55.6 10.36 56.75 10.36C57.65 10.36 58.47 10.63 59.02 11.02C59.3 11.2 59.54 11.42 59.76 11.67C60.2 12.18 60.43 12.68 60.56 13.17L59.71 13.47C59.63 13.19 59.52 12.89 59.2 12.45C59.04 12.22 58.86 12.02 58.65 11.85C58.44 11.67 58.18 11.52 57.83 11.4C57.5 11.27 57.13 11.22 56.72 11.22C55.84 11.22 54.98 11.58 54.39 12.18C53.78 12.78 53.39 13.68 53.39 14.69C53.39 15.36 53.53 15.97 53.82 16.5C54.1 17.05 54.5 17.46 55.03 17.77C55.53 18.07 56.11 18.23 56.74 18.23C57.52 18.23 58.2 17.95 58.61 17.63C58.82 17.46 59 17.28 59.17 17.05C59.33 16.82 59.45 16.62 59.53 16.46C59.6 16.29 59.67 16.12 59.73 15.94L60.58 16.25C60.45 16.7 60.23 17.17 59.8 17.7C59.59 17.95 59.33 18.19 59.06 18.39C58.5 18.79 57.65 19.08 56.71 19.08ZM63.09 17.87C62.72 17.5 62.41 17.05 62.19 16.5C61.97 15.95 61.85 15.37 61.85 14.75C61.85 14.12 61.97 13.52 62.2 12.97C62.44 12.42 62.74 11.95 63.13 11.58C63.91 10.82 65 10.36 66.15 10.36C67.05 10.36 67.86 10.63 68.41 11.02C68.69 11.2 68.94 11.42 69.16 11.67C69.59 12.18 69.83 12.68 69.96 13.17L69.1 13.47C69.03 13.19 68.92 12.89 68.6 12.45C68.44 12.22 68.26 12.02 68.05 11.85C67.84 11.67 67.57 11.52 67.23 11.4C66.89 11.27 66.53 11.22 66.12 11.22C65.23 11.22 64.38 11.58 63.78 12.18C63.18 12.78 62.79 13.68 62.79 14.69C62.79 15.36 62.93 15.97 63.22 16.5C63.5 17.05 63.9 17.46 64.43 17.77C64.93 18.07 65.5 18.23 66.13 18.23C66.91 18.23 67.59 17.95 68 17.63C68.22 17.46 68.4 17.28 68.57 17.05C68.73 16.82 68.85 16.62 68.93 16.46C69 16.29 69.07 16.12 69.13 15.94L69.98 16.25C69.85 16.7 69.63 17.17 69.2 17.7C68.99 17.95 68.73 18.19 68.46 18.39C67.9 18.79 67.05 19.08 66.11 19.08C64.94 19.08 63.86 18.62 63.09 17.87ZM71.85 10.45L77.18 10.45L77.18 11.28L72.75 11.28L72.75 14.23L76.81 14.23L76.81 15.07L72.75 15.07L72.75 18.16L77.22 18.16L77.22 18.99L71.85 18.99L71.85 10.45ZM79.62 18.32C79.09 17.86 78.75 17.25 78.68 16.66L79.52 16.42C79.62 16.93 79.88 17.35 80.3 17.7C80.71 18.05 81.18 18.23 81.7 18.23C82.19 18.23 82.65 18.11 83.01 17.85C83.37 17.6 83.61 17.18 83.61 16.67C83.61 16.07 83.29 15.68 82.89 15.45C82.61 15.29 82.37 15.22 82.08 15.16L80.96 14.94C80.73 14.89 80.48 14.81 80.22 14.69C79.95 14.56 79.71 14.41 79.52 14.21C79.11 13.82 78.92 13.33 78.92 12.73C78.92 12.27 79.05 11.85 79.3 11.48C79.56 11.11 79.89 10.84 80.3 10.64C80.71 10.45 81.14 10.36 81.62 10.36C83.45 10.36 84.26 11.5 84.44 12.41L83.62 12.67C83.48 12.06 82.93 11.19 81.61 11.19C80.69 11.17 79.81 11.81 79.82 12.7C79.82 13.36 80.23 13.88 81.06 14.05L82.13 14.26C82.86 14.4 83.42 14.64 83.79 15.01C84.05 15.24 84.24 15.51 84.36 15.79C84.47 16.09 84.53 16.34 84.53 16.58C84.54 18.07 83.28 19.1 81.7 19.07C80.89 19.07 80.12 18.77 79.62 18.32ZM86.86 18.32C86.34 17.86 86 17.25 85.93 16.66L86.77 16.42C86.86 16.93 87.12 17.35 87.54 17.7C87.95 18.05 88.42 18.23 88.95 18.23C89.44 18.23 89.89 18.11 90.26 17.85C90.62 17.6 90.85 17.18 90.85 16.67C90.85 16.07 90.54 15.68 90.14 15.45C89.86 15.29 89.61 15.22 89.33 15.16L88.21 14.94C87.98 14.89 87.73 14.81 87.46 14.69C87.19 14.56 86.96 14.41 86.76 14.21C86.36 13.82 86.16 13.33 86.16 12.73C86.16 12.27 86.29 11.85 86.55 11.48C86.81 11.11 87.13 10.84 87.54 10.64C87.95 10.45 88.38 10.36 88.87 10.36C90.7 10.36 91.51 11.5 91.68 12.41L90.86 12.67C90.72 12.06 90.18 11.19 88.85 11.19C87.94 11.17 87.05 11.81 87.07 12.7C87.07 13.36 87.47 13.88 88.3 14.05L89.38 14.26C90.1 14.4 90.67 14.64 91.04 15.01C91.3 15.24 91.49 15.51 91.6 15.79C91.72 16.09 91.78 16.34 91.78 16.58C91.79 18.07 90.53 19.1 88.95 19.07C88.14 19.07 87.37 18.77 86.86 18.32ZM93.83 18.99L93.83 10.45L94.73 10.45L94.73 18.99L93.83 18.99ZM100.54 18.99L97.36 18.99L97.36 10.45L100.42 10.45C101.97 10.43 103.17 11.23 103.17 12.59C103.17 12.79 103.16 12.97 103.05 13.3C103.01 13.46 102.93 13.6 102.84 13.74C102.67 14.02 102.32 14.35 101.87 14.55C102.47 14.7 102.95 15.07 103.19 15.47C103.44 15.88 103.55 16.29 103.55 16.64C103.55 17.44 103.2 18.06 102.64 18.44C102.08 18.8 101.36 18.99 100.54 18.99ZM98.24 11.27L98.24 14.25L100.28 14.25C100.95 14.25 101.44 14.1 101.77 13.82C102.09 13.52 102.26 13.16 102.26 12.7C102.26 11.66 101.32 11.27 100.35 11.27L98.24 11.27ZM98.24 15.04L98.24 18.17L100.56 18.17C101.48 18.17 102.63 17.79 102.63 16.59C102.63 15.85 102.18 15.44 101.6 15.24C101.2 15.09 100.82 15.04 100.39 15.04L98.24 15.04ZM105.6 18.99L105.6 10.45L106.5 10.45L106.5 18.99L105.6 18.99ZM109.13 10.45L110.03 10.45L110.03 18.14L114.07 18.14L114.07 18.99L109.13 18.99L109.13 10.45ZM115.74 18.99L115.74 10.45L116.64 10.45L116.64 18.99L115.74 18.99ZM122.06 11.3L122.06 18.99L121.17 18.99L121.17 11.3L118.32 11.3L118.32 10.45L124.92 10.45L124.92 11.3L122.06 11.3ZM129.46 14.54L132.18 10.45L133.2 10.45L129.9 15.38L129.9 18.99L128.99 18.99L128.99 15.39L125.69 10.45L126.77 10.45L129.46 14.54Z" />
		<path id="Layer-5" fill-rule="evenodd" class="shp3" d="M55.15 38.56L53.07 38.56L48.24 31.95L44.92 31.95L44.92 38.56L43.2 38.56L43.2 22.23L48.86 22.23C50.79 22.23 52.33 22.77 53.23 23.66C54.12 24.56 54.59 25.68 54.59 27C54.59 29.76 52.53 31.35 50.12 31.66L55.15 38.56ZM44.92 30.38L48.7 30.38C50.14 30.38 51.26 29.98 51.91 29.33C52.53 28.7 52.85 27.92 52.85 27.05C52.85 25.43 51.86 23.84 48.75 23.84L44.92 23.84L44.92 30.38ZM58.7 38.56L58.7 22.23L68.91 22.23L68.91 23.82L60.43 23.82L60.43 29.46L68.19 29.46L68.19 31.05L60.43 31.05L60.43 36.97L69 36.97L69 38.56L58.7 38.56ZM78.23 32.18L74.76 32.18L74.76 38.56L73.04 38.56L73.04 22.23L78.5 22.23C82.49 22.21 84.23 24.6 84.23 27.14C84.23 28.55 83.7 29.78 82.73 30.7C81.75 31.62 80.16 32.18 78.23 32.18ZM74.76 23.84L74.76 30.59L78.28 30.59C79.73 30.59 80.87 30.16 81.52 29.49C82.17 28.84 82.49 28.03 82.49 27.18C82.49 25.59 81.57 23.84 78.37 23.84L74.76 23.84ZM103 30.36C103 31.91 102.64 33.32 101.95 34.59C101.23 35.87 100.25 36.88 99 37.62C97.72 38.36 96.33 38.74 94.77 38.74C93.62 38.74 92.55 38.51 91.52 38.09C90.51 37.67 89.64 37.08 88.92 36.32C88.21 35.6 87.65 34.73 87.22 33.7C86.82 32.67 86.6 31.59 86.6 30.45C86.6 28.91 86.95 27.5 87.67 26.22C88.36 24.94 89.35 23.91 90.63 23.17C91.88 22.43 93.29 22.07 94.83 22.07C95.97 22.07 97.05 22.27 98.08 22.7C99.09 23.15 99.96 23.73 100.67 24.45C101.39 25.21 101.97 26.08 102.38 27.09C102.8 28.12 103 29.2 103 30.36ZM99.44 25.68C98.33 24.45 96.65 23.66 94.77 23.66C93.56 23.66 92.46 23.98 91.48 24.56C90.49 25.18 89.73 25.99 89.19 27C88.65 28.03 88.38 29.15 88.38 30.36C88.38 32.18 89.06 33.9 90.18 35.11C91.3 36.34 92.97 37.13 94.83 37.13C96.04 37.13 97.14 36.82 98.12 36.21C99.13 35.63 99.89 34.8 100.43 33.79C100.97 32.78 101.23 31.66 101.23 30.45C101.23 28.61 100.56 26.91 99.44 25.68ZM118.84 38.56L116.76 38.56L111.92 31.95L108.61 31.95L108.61 38.56L106.89 38.56L106.89 22.23L112.55 22.23C114.48 22.23 116.02 22.77 116.91 23.66C117.81 24.56 118.28 25.68 118.28 27C118.28 29.76 116.22 31.35 113.81 31.66L118.84 38.56ZM108.61 30.38L112.39 30.38C113.83 30.38 114.94 29.98 115.6 29.33C116.22 28.7 116.53 27.92 116.53 27.05C116.53 25.43 115.55 23.84 112.44 23.84L108.61 23.84L108.61 30.38ZM127.74 38.56L126.04 38.56L126.04 23.84L120.58 23.84L120.58 22.23L133.2 22.23L133.2 23.84L127.74 23.84L127.74 38.56Z" />
	</g>
	<g id="SvgjsG1106">
	</g>
</svg>